<svg width="580" height="490" viewBox="0 0 580 490" fill="none" xmlns="http://www.w3.org/2000/svg">
<rect width="580" height="490" fill="#1E1E1E"/>
<g clip-path="url(#clip0_0_1)">
<rect width="580" height="490" fill="white"/>
<path d="M361.8 252.6C361.8 264 359.2 273.5 354 281.1C348.8 288.7 341.9 294.8 333.3 299.4C324.9 303.8 315.7 307 305.7 309C295.9 310.8 286.3 311.7 276.9 311.7C264.7 311.7 253.2 309.8 242.4 306C238 304.4 233.7 302.7 229.5 300.9C225.3 298.9 220.9 297.3 216.3 296.1C215.5 289.7 214.1 282.7 212.1 275.1C210.3 267.5 209.4 260.6 209.4 254.4C209.4 251.6 209.8 249.5 210.6 248.1C211.6 246.5 213.7 245.7 216.9 245.7C219.7 245.7 221.5 246.4 222.3 247.8C223.1 249 223.7 250.7 224.1 252.9C224.9 255.7 225.6 258.5 226.2 261.3C226.8 263.9 227.5 266.6 228.3 269.4C232.3 281.4 238.2 289.8 246 294.6C254 299.4 264.2 301.8 276.6 301.8C286.8 301.8 295.9 300.4 303.9 297.6C312.1 294.6 318.5 289.8 323.1 283.2C327.9 276.6 330.3 267.8 330.3 256.8C330.3 248.2 327.4 240.5 321.6 233.7C315.8 226.7 309.4 221.2 302.4 217.2C300.8 216.2 299.1 215.3 297.3 214.5C295.5 213.7 293.7 212.9 291.9 212.1C285.7 208.9 279.4 205.7 273 202.5C266.8 199.3 260.5 196.2 254.1 193.2C247.9 190 241.5 186 234.9 181.2C228.5 176.2 223 170.5 218.4 164.1C214 157.7 211.8 150.7 211.8 143.1C211.8 130.3 215.2 119.7 222 111.3C228.8 102.9 237.5 96.6 248.1 92.4C258.7 88.2 269.7 86.1 281.1 86.1C289.3 86.1 296.6 87.1 303 89.1C309.6 91.1 316.1 93.2 322.5 95.4C328.9 97.4 335.9 98.8 343.5 99.6C344.1 105.6 344.7 111.6 345.3 117.6C345.9 123.6 346.8 129.6 348 135.6C348.2 136.4 348.3 137.2 348.3 138C348.5 138.8 348.6 139.6 348.6 140.4C348.6 143.6 347.5 145.7 345.3 146.7C343.3 147.5 341 147.9 338.4 147.9C335.8 147.9 334.4 147.4 334.2 146.4C334 145.4 333.7 143.9 333.3 141.9C330.7 125.9 325.2 113.9 316.8 105.9C308.4 97.7 295.8 93.6 279 93.6C266.6 93.6 256.9 96.9 249.9 103.5C243.1 110.1 239.7 119.7 239.7 132.3C239.7 140.7 241.9 147.8 246.3 153.6C250.7 159.4 256.5 164.5 263.7 168.9C271.1 173.1 279.1 177.1 287.7 180.9C296.5 184.7 305.2 188.6 313.8 192.6C322.4 196.6 330.3 201.3 337.5 206.7C344.9 211.9 350.8 218.2 355.2 225.6C359.6 233 361.8 242 361.8 252.6Z" fill="black"/>
<path d="M405 365.8C405 349.8 401.7 337.4 395.1 328.6C388.7 319.8 377 315.2 360 314.8C356.8 314.8 353.6 314.8 350.4 314.8C347.2 314.6 344 314.5 340.8 314.5C335.8 314.5 330.7 314.6 325.5 314.8C320.5 315 315.4 315.1 310.2 315.1V409C310.2 412.6 311.2 415.2 313.2 416.8C315.4 418.4 318 419.4 321 419.8C324 420 326.8 420.1 329.4 420.1C332.8 420.1 336.2 420.1 339.6 420.1C343.2 419.9 346.7 419.7 350.1 419.5C366.7 418.5 380 413.7 390 405.1C400 396.5 405 383.4 405 365.8ZM389.7 259.3C389.7 243.9 385.5 232.9 377.1 226.3C368.7 219.5 357.1 216.1 342.3 216.1C336.9 216.1 331.5 216.2 326.1 216.4C320.9 216.4 315.6 216.6 310.2 217V306.7C313 306.7 315.7 306.8 318.3 307C320.9 307 323.5 307 326.1 307C331.1 307 336.6 306.8 342.6 306.4C348.8 306 354.7 305 360.3 303.4C366.1 301.8 370.9 299.2 374.7 295.6C379.3 291 382.9 285.5 385.5 279.1C388.3 272.5 389.7 265.9 389.7 259.3ZM437.1 361C437.1 375 433.8 387.2 427.2 397.6C420.6 407.8 410.7 415.5 397.5 420.7C390.5 423.5 382.8 425.4 374.4 426.4C366.2 427.2 358.3 427.6 350.7 427.6C349.3 427.6 347.8 427.6 346.2 427.6C344.8 427.6 343.4 427.5 342 427.3C332.4 426.9 322.8 426.6 313.2 426.4C303.8 426 294.3 425.8 284.7 425.8C279.3 425.8 273.9 426.2 268.5 427C263.3 427.6 258 427.9 252.6 427.9C251 427.9 250.1 427.3 249.9 426.1C249.7 424.7 249.6 423.4 249.6 422.2C249.6 420 250.5 418.9 252.3 418.9C255.1 418.9 258 418.9 261 418.9C264.2 418.7 267.2 418.4 270 418C274.2 417.4 276.9 415.8 278.1 413.2C279.5 410.4 280.3 407.1 280.5 403.3C280.9 399.3 281 395.4 280.8 391.6C280.6 387.8 280.5 384 280.5 380.2C280.5 372.8 280.5 365.4 280.5 358C280.7 350.4 280.8 342.9 280.8 335.5V302.8C280.8 292 280.7 281.2 280.5 270.4C280.5 259.6 280.5 248.8 280.5 238C280.5 236 280.4 234.1 280.2 232.3C280.2 230.3 279.9 228.4 279.3 226.6C277.9 222.6 275.4 220.2 271.8 219.4C268.4 218.4 264.9 217.9 261.3 217.9C259.9 217.9 258.4 218 256.8 218.2C255.4 218.2 253.9 218.2 252.3 218.2C250.9 218.2 250 217.5 249.6 216.1C249.4 214.7 249.3 213.6 249.3 212.8C249.3 212 249.4 211.2 249.6 210.4C250 209.4 250.7 208.9 251.7 208.9C256.3 208.9 260.8 209.1 265.2 209.5C269.6 209.7 274 209.8 278.4 209.8C290.2 209.8 301.8 209.5 313.2 208.9C324.8 208.1 336.4 207.3 348 206.5C349.6 206.3 351.1 206.2 352.5 206.2C353.9 206.2 355.3 206.2 356.7 206.2C367.9 206.2 378.4 207.7 388.2 210.7C398.2 213.5 406.3 218.5 412.5 225.7C418.7 232.9 421.8 243 421.8 256C421.8 264.2 419.6 271.6 415.2 278.2C411 284.6 405.5 290.2 398.7 295C392.1 299.6 385.3 303.3 378.3 306.1V307.6C387.9 309.2 397.2 312.1 406.2 316.3C415.2 320.3 422.6 326 428.4 333.4C434.2 340.6 437.1 349.8 437.1 361Z" fill="black"/>
<rect x="165" y="224" width="345" height="43" fill="white"/>
<path d="M202.966 247.488C202.966 248.4 202.758 249.16 202.342 249.768C201.926 250.376 201.374 250.864 200.686 251.232C200.014 251.584 199.278 251.84 198.478 252C197.694 252.144 196.926 252.216 196.174 252.216C195.198 252.216 194.278 252.064 193.414 251.76C193.062 251.632 192.718 251.496 192.382 251.352C192.046 251.192 191.694 251.064 191.326 250.968C191.262 250.456 191.15 249.896 190.99 249.288C190.846 248.68 190.774 248.128 190.774 247.632C190.774 247.408 190.806 247.24 190.87 247.128C190.95 247 191.118 246.936 191.374 246.936C191.598 246.936 191.742 246.992 191.806 247.104C191.87 247.2 191.918 247.336 191.95 247.512C192.014 247.736 192.07 247.96 192.118 248.184C192.166 248.392 192.222 248.608 192.286 248.832C192.606 249.792 193.078 250.464 193.702 250.848C194.342 251.232 195.158 251.424 196.15 251.424C196.966 251.424 197.694 251.312 198.334 251.088C198.99 250.848 199.502 250.464 199.87 249.936C200.254 249.408 200.446 248.704 200.446 247.824C200.446 247.136 200.214 246.52 199.75 245.976C199.286 245.416 198.774 244.976 198.214 244.656C198.086 244.576 197.95 244.504 197.806 244.44C197.662 244.376 197.518 244.312 197.374 244.248C196.878 243.992 196.374 243.736 195.862 243.48C195.366 243.224 194.862 242.976 194.35 242.736C193.854 242.48 193.342 242.16 192.814 241.776C192.302 241.376 191.862 240.92 191.494 240.408C191.142 239.896 190.966 239.336 190.966 238.728C190.966 237.704 191.238 236.856 191.782 236.184C192.326 235.512 193.022 235.008 193.87 234.672C194.718 234.336 195.598 234.168 196.51 234.168C197.166 234.168 197.75 234.248 198.262 234.408C198.79 234.568 199.31 234.736 199.822 234.912C200.334 235.072 200.894 235.184 201.502 235.248C201.55 235.728 201.598 236.208 201.646 236.688C201.694 237.168 201.766 237.648 201.862 238.128C201.878 238.192 201.886 238.256 201.886 238.32C201.902 238.384 201.91 238.448 201.91 238.512C201.91 238.768 201.822 238.936 201.646 239.016C201.486 239.08 201.302 239.112 201.094 239.112C200.886 239.112 200.774 239.072 200.758 238.992C200.742 238.912 200.718 238.792 200.686 238.632C200.478 237.352 200.038 236.392 199.366 235.752C198.694 235.096 197.686 234.768 196.342 234.768C195.35 234.768 194.574 235.032 194.014 235.56C193.47 236.088 193.198 236.856 193.198 237.864C193.198 238.536 193.374 239.104 193.726 239.568C194.078 240.032 194.542 240.44 195.118 240.792C195.71 241.128 196.35 241.448 197.038 241.752C197.742 242.056 198.438 242.368 199.126 242.688C199.814 243.008 200.446 243.384 201.022 243.816C201.614 244.232 202.086 244.736 202.438 245.328C202.79 245.92 202.966 246.64 202.966 247.488ZM222.16 249.192C222.096 248.472 222.056 247.752 222.04 247.032C222.04 246.296 222.032 245.56 222.016 244.824H221.68C221.184 244.824 220.632 244.904 220.024 245.064C219.432 245.208 218.864 245.432 218.32 245.736C217.776 246.04 217.328 246.424 216.976 246.888C216.64 247.336 216.472 247.856 216.472 248.448C216.472 249.216 216.688 249.8 217.12 250.2C217.552 250.584 218.136 250.776 218.872 250.776C219.224 250.776 219.608 250.696 220.024 250.536C220.44 250.36 220.84 250.152 221.224 249.912C221.608 249.672 221.92 249.432 222.16 249.192ZM226.36 250.728C226.36 250.792 226.352 250.84 226.336 250.872C226.176 251.224 225.904 251.496 225.52 251.688C225.152 251.864 224.784 251.952 224.416 251.952C223.744 251.952 223.256 251.76 222.952 251.376C222.664 250.976 222.432 250.488 222.256 249.912C221.648 250.472 220.976 250.944 220.24 251.328C219.504 251.696 218.712 251.88 217.864 251.88C217.272 251.88 216.712 251.768 216.184 251.544C215.672 251.304 215.256 250.96 214.936 250.512C214.616 250.064 214.456 249.52 214.456 248.88C214.456 248.208 214.624 247.632 214.96 247.152C215.312 246.656 215.752 246.24 216.28 245.904C216.824 245.552 217.4 245.272 218.008 245.064C218.632 244.84 219.216 244.672 219.76 244.56C220.128 244.48 220.504 244.408 220.888 244.344C221.272 244.28 221.648 244.216 222.016 244.152C222.016 243.704 221.992 243.184 221.944 242.592C221.912 242 221.792 241.512 221.584 241.128C221.376 240.76 221.096 240.432 220.744 240.144C220.392 239.856 220 239.712 219.568 239.712C218.832 239.712 218.256 239.904 217.84 240.288C217.424 240.672 217.128 241.216 216.952 241.92C216.936 242 216.92 242.088 216.904 242.184C216.904 242.264 216.896 242.344 216.88 242.424C216.864 242.52 216.8 242.608 216.688 242.688C216.592 242.752 216.488 242.784 216.376 242.784C216.072 242.784 215.792 242.712 215.536 242.568C215.296 242.424 215.176 242.184 215.176 241.848C215.176 241.656 215.208 241.488 215.272 241.344C215.48 240.848 215.816 240.44 216.28 240.12C216.744 239.784 217.256 239.528 217.816 239.352C218.392 239.176 218.928 239.088 219.424 239.088C220.288 239.088 221.072 239.248 221.776 239.568C222.48 239.888 223.04 240.36 223.456 240.984C223.888 241.592 224.104 242.36 224.104 243.288C224.104 244.328 224.096 245.376 224.08 246.432C224.08 247.488 224.112 248.544 224.176 249.6C224.192 249.952 224.264 250.264 224.392 250.536C224.52 250.792 224.784 250.92 225.184 250.92C225.392 250.92 225.608 250.872 225.832 250.776C226.072 250.664 226.224 250.608 226.288 250.608C226.336 250.608 226.36 250.648 226.36 250.728ZM250.575 239.352C250.575 239.512 250.519 239.6 250.407 239.616C250.295 239.632 250.143 239.64 249.951 239.64C249.775 239.64 249.591 239.68 249.399 239.76C249.223 239.84 249.063 240.024 248.919 240.312C248.135 241.848 247.415 243.416 246.759 245.016C246.103 246.616 245.383 248.184 244.599 249.72C244.135 250.648 243.671 251.576 243.207 252.504C242.759 253.448 242.255 254.36 241.695 255.24C241.391 255.72 241.031 256.104 240.615 256.392C240.199 256.68 239.703 256.824 239.127 256.824C238.647 256.824 238.207 256.72 237.807 256.512C237.423 256.304 237.231 255.928 237.231 255.384C237.231 255.032 237.359 254.736 237.615 254.496C237.887 254.256 238.191 254.136 238.527 254.136C238.671 254.136 238.815 254.16 238.959 254.208C238.863 254.4 238.815 254.584 238.815 254.76C238.815 255 238.903 255.184 239.079 255.312C239.271 255.456 239.471 255.528 239.679 255.528C239.999 255.528 240.287 255.432 240.543 255.24C240.815 255.064 241.031 254.848 241.191 254.592C241.479 254.16 241.719 253.68 241.911 253.152C242.119 252.624 242.223 252.104 242.223 251.592C242.223 251.368 242.207 251.144 242.175 250.92C242.143 250.696 242.095 250.48 242.031 250.272C241.935 249.936 241.823 249.608 241.695 249.288C241.567 248.952 241.439 248.624 241.311 248.304C241.103 247.792 240.895 247.288 240.687 246.792C240.495 246.296 240.287 245.8 240.063 245.304C239.759 244.584 239.455 243.864 239.151 243.144C238.863 242.408 238.543 241.696 238.191 241.008C238.143 240.928 238.095 240.848 238.047 240.768C238.015 240.688 237.967 240.608 237.903 240.528C237.823 240.4 237.719 240.296 237.591 240.216C237.479 240.12 237.335 240.072 237.159 240.072C237.047 240.072 236.927 240.08 236.799 240.096C236.671 240.112 236.543 240.12 236.415 240.12C236.335 240.12 236.271 240.088 236.223 240.024C236.175 239.944 236.151 239.872 236.151 239.808C236.151 239.68 236.223 239.6 236.367 239.568C236.527 239.52 236.687 239.488 236.847 239.472C237.023 239.456 237.191 239.44 237.351 239.424C237.703 239.36 238.055 239.296 238.407 239.232C238.759 239.168 239.111 239.12 239.463 239.088C239.511 239.072 239.559 239.064 239.607 239.064C239.655 239.064 239.703 239.064 239.751 239.064C239.911 239.064 240.015 239.112 240.063 239.208C240.127 239.304 240.191 239.416 240.255 239.544C240.623 240.344 240.959 241.168 241.263 242.016C241.567 242.848 241.871 243.68 242.175 244.512C242.495 245.296 242.799 246.088 243.087 246.888C243.375 247.688 243.671 248.488 243.975 249.288C244.087 249.08 244.247 248.736 244.455 248.256C244.679 247.76 244.927 247.2 245.199 246.576C245.487 245.936 245.775 245.272 246.063 244.584C246.351 243.896 246.615 243.24 246.855 242.616C247.111 241.992 247.311 241.456 247.455 241.008C247.615 240.544 247.695 240.224 247.695 240.048C247.695 239.84 247.591 239.72 247.383 239.688C247.175 239.64 246.943 239.624 246.687 239.64C246.431 239.656 246.239 239.664 246.111 239.664C246.047 239.664 245.991 239.632 245.943 239.568C245.895 239.504 245.871 239.44 245.871 239.376C245.871 239.216 245.951 239.136 246.111 239.136C246.287 239.12 246.423 239.112 246.519 239.112C246.791 239.112 247.071 239.12 247.359 239.136C247.647 239.136 247.927 239.136 248.199 239.136C248.567 239.136 248.927 239.128 249.279 239.112C249.647 239.096 250.007 239.088 250.359 239.088C250.439 239.088 250.495 239.12 250.527 239.184C250.559 239.232 250.575 239.288 250.575 239.352ZM268.665 249.192C268.601 248.472 268.561 247.752 268.545 247.032C268.545 246.296 268.537 245.56 268.521 244.824H268.185C267.689 244.824 267.137 244.904 266.529 245.064C265.937 245.208 265.369 245.432 264.825 245.736C264.281 246.04 263.833 246.424 263.481 246.888C263.145 247.336 262.977 247.856 262.977 248.448C262.977 249.216 263.193 249.8 263.625 250.2C264.057 250.584 264.641 250.776 265.377 250.776C265.729 250.776 266.113 250.696 266.529 250.536C266.945 250.36 267.345 250.152 267.729 249.912C268.113 249.672 268.425 249.432 268.665 249.192ZM272.865 250.728C272.865 250.792 272.857 250.84 272.841 250.872C272.681 251.224 272.409 251.496 272.025 251.688C271.657 251.864 271.289 251.952 270.921 251.952C270.249 251.952 269.761 251.76 269.457 251.376C269.169 250.976 268.937 250.488 268.761 249.912C268.153 250.472 267.481 250.944 266.745 251.328C266.009 251.696 265.217 251.88 264.369 251.88C263.777 251.88 263.217 251.768 262.689 251.544C262.177 251.304 261.761 250.96 261.441 250.512C261.121 250.064 260.961 249.52 260.961 248.88C260.961 248.208 261.129 247.632 261.465 247.152C261.817 246.656 262.257 246.24 262.785 245.904C263.329 245.552 263.905 245.272 264.513 245.064C265.137 244.84 265.721 244.672 266.265 244.56C266.633 244.48 267.009 244.408 267.393 244.344C267.777 244.28 268.153 244.216 268.521 244.152C268.521 243.704 268.497 243.184 268.449 242.592C268.417 242 268.297 241.512 268.089 241.128C267.881 240.76 267.601 240.432 267.249 240.144C266.897 239.856 266.505 239.712 266.073 239.712C265.337 239.712 264.761 239.904 264.345 240.288C263.929 240.672 263.633 241.216 263.457 241.92C263.441 242 263.425 242.088 263.409 242.184C263.409 242.264 263.401 242.344 263.385 242.424C263.369 242.52 263.305 242.608 263.193 242.688C263.097 242.752 262.993 242.784 262.881 242.784C262.577 242.784 262.297 242.712 262.041 242.568C261.801 242.424 261.681 242.184 261.681 241.848C261.681 241.656 261.713 241.488 261.777 241.344C261.985 240.848 262.321 240.44 262.785 240.12C263.249 239.784 263.761 239.528 264.321 239.352C264.897 239.176 265.433 239.088 265.929 239.088C266.793 239.088 267.577 239.248 268.281 239.568C268.985 239.888 269.545 240.36 269.961 240.984C270.393 241.592 270.609 242.36 270.609 243.288C270.609 244.328 270.601 245.376 270.585 246.432C270.585 247.488 270.617 248.544 270.681 249.6C270.697 249.952 270.769 250.264 270.897 250.536C271.025 250.792 271.289 250.92 271.689 250.92C271.897 250.92 272.113 250.872 272.337 250.776C272.577 250.664 272.729 250.608 272.793 250.608C272.841 250.608 272.865 250.648 272.865 250.728ZM290.191 251.688C290.191 251.768 290.167 251.848 290.119 251.928C290.087 251.992 290.023 252.024 289.927 252.024C289.431 252.024 288.927 252.016 288.415 252C287.903 251.968 287.391 251.952 286.879 251.952H286.039C285.703 251.952 285.367 251.968 285.031 252C284.695 252.016 284.359 252.024 284.023 252.024C283.959 252.024 283.911 252 283.879 251.952C283.863 251.888 283.855 251.832 283.855 251.784C283.855 251.736 283.855 251.688 283.855 251.64C283.855 251.592 283.863 251.544 283.879 251.496C283.911 251.432 283.999 251.4 284.143 251.4C284.303 251.384 284.463 251.384 284.623 251.4C284.799 251.4 284.911 251.4 284.959 251.4C285.183 251.4 285.383 251.352 285.559 251.256C285.735 251.144 285.823 250.96 285.823 250.704C285.823 249.472 285.831 248.248 285.847 247.032C285.863 245.8 285.871 244.576 285.871 243.36C285.871 242.112 285.863 240.864 285.847 239.616C285.847 238.352 285.847 237.096 285.847 235.848C285.847 235.736 285.839 235.616 285.823 235.488C285.807 235.344 285.759 235.232 285.679 235.152C285.615 235.072 285.551 235.032 285.487 235.032C285.423 235.016 285.343 235.008 285.247 235.008C284.959 235.008 284.671 235.056 284.383 235.152C284.111 235.248 283.839 235.296 283.567 235.296C283.391 235.296 283.303 235.192 283.303 234.984C283.303 234.856 283.399 234.768 283.591 234.72C283.799 234.672 283.959 234.64 284.071 234.624C284.631 234.496 285.239 234.352 285.895 234.192C286.551 234.032 287.143 233.848 287.671 233.64C287.703 233.64 287.735 233.632 287.767 233.616C287.799 233.6 287.823 233.592 287.839 233.592C287.935 233.592 287.991 233.624 288.007 233.688C288.039 233.752 288.055 233.824 288.055 233.904C288.055 234.352 288.047 234.8 288.031 235.248C288.031 235.68 288.031 236.12 288.031 236.568V243.288C288.031 244.52 288.039 245.76 288.055 247.008C288.071 248.24 288.079 249.472 288.079 250.704C288.079 250.96 288.183 251.144 288.391 251.256C288.615 251.352 288.831 251.4 289.039 251.4C289.215 251.4 289.383 251.392 289.543 251.376C289.703 251.36 289.863 251.352 290.023 251.352C290.103 251.352 290.151 251.4 290.167 251.496C290.183 251.576 290.191 251.64 290.191 251.688ZM308.136 251.64C308.136 251.72 308.112 251.8 308.064 251.88C308.016 251.944 307.952 251.976 307.872 251.976C307.424 251.976 306.976 251.968 306.528 251.952C306.096 251.92 305.648 251.904 305.184 251.904H304.536C304.056 251.904 303.576 251.92 303.096 251.952C302.632 251.968 302.168 251.976 301.704 251.976C301.64 251.976 301.592 251.936 301.56 251.856C301.544 251.776 301.536 251.712 301.536 251.664C301.536 251.584 301.544 251.528 301.56 251.496C301.576 251.448 301.624 251.416 301.704 251.4C301.784 251.368 301.872 251.36 301.968 251.376C302.08 251.376 302.184 251.376 302.28 251.376C302.392 251.376 302.496 251.384 302.592 251.4C302.688 251.4 302.792 251.4 302.904 251.4C303.128 251.4 303.328 251.352 303.504 251.256C303.696 251.144 303.792 250.96 303.792 250.704V241.104C303.792 240.832 303.744 240.624 303.648 240.48C303.552 240.32 303.352 240.24 303.048 240.24C302.824 240.24 302.592 240.256 302.352 240.288C302.128 240.304 301.904 240.328 301.68 240.36C301.552 240.36 301.488 240.288 301.488 240.144C301.488 239.984 301.552 239.88 301.68 239.832C301.872 239.768 302.072 239.728 302.28 239.712C302.504 239.68 302.712 239.648 302.904 239.616C303.352 239.536 303.8 239.448 304.248 239.352C304.696 239.256 305.136 239.152 305.568 239.04C305.616 239.024 305.68 239.016 305.76 239.016C305.936 239.016 306.024 239.112 306.024 239.304C306.024 241.192 306.016 243.088 306 244.992C306 246.896 306 248.8 306 250.704C306 250.96 306.112 251.144 306.336 251.256C306.576 251.352 306.8 251.4 307.008 251.4C307.168 251.4 307.328 251.392 307.488 251.376C307.664 251.36 307.832 251.352 307.992 251.352C308.056 251.352 308.096 251.392 308.112 251.472C308.128 251.552 308.136 251.608 308.136 251.64ZM306.192 235.032C306.192 235.432 306.048 235.776 305.76 236.064C305.472 236.336 305.128 236.472 304.728 236.472C304.328 236.472 303.984 236.336 303.696 236.064C303.408 235.776 303.264 235.432 303.264 235.032C303.264 234.632 303.408 234.296 303.696 234.024C303.984 233.736 304.328 233.592 304.728 233.592C305.128 233.592 305.472 233.736 305.76 234.024C306.048 234.296 306.192 234.632 306.192 235.032ZM347.178 247.104C347.178 245.824 346.914 244.832 346.386 244.128C345.874 243.424 344.938 243.056 343.578 243.024C343.322 243.024 343.066 243.024 342.81 243.024C342.554 243.008 342.298 243 342.042 243C341.642 243 341.234 243.008 340.818 243.024C340.418 243.04 340.01 243.048 339.594 243.048V250.56C339.594 250.848 339.674 251.056 339.834 251.184C340.01 251.312 340.218 251.392 340.458 251.424C340.698 251.44 340.922 251.448 341.13 251.448C341.402 251.448 341.674 251.448 341.946 251.448C342.234 251.432 342.514 251.416 342.786 251.4C344.114 251.32 345.178 250.936 345.978 250.248C346.778 249.56 347.178 248.512 347.178 247.104ZM345.954 238.584C345.954 237.352 345.618 236.472 344.946 235.944C344.274 235.4 343.346 235.128 342.162 235.128C341.73 235.128 341.298 235.136 340.866 235.152C340.45 235.152 340.026 235.168 339.594 235.2V242.376C339.818 242.376 340.034 242.384 340.242 242.4C340.45 242.4 340.658 242.4 340.866 242.4C341.266 242.4 341.706 242.384 342.186 242.352C342.682 242.32 343.154 242.24 343.602 242.112C344.066 241.984 344.45 241.776 344.754 241.488C345.122 241.12 345.41 240.68 345.618 240.168C345.842 239.64 345.954 239.112 345.954 238.584ZM349.746 246.72C349.746 247.84 349.482 248.816 348.954 249.648C348.426 250.464 347.634 251.08 346.578 251.496C346.018 251.72 345.402 251.872 344.73 251.952C344.074 252.016 343.442 252.048 342.834 252.048C342.722 252.048 342.602 252.048 342.474 252.048C342.362 252.048 342.25 252.04 342.138 252.024C341.37 251.992 340.602 251.968 339.834 251.952C339.082 251.92 338.322 251.904 337.554 251.904C337.122 251.904 336.69 251.936 336.258 252C335.842 252.048 335.418 252.072 334.986 252.072C334.858 252.072 334.786 252.024 334.77 251.928C334.754 251.816 334.746 251.712 334.746 251.616C334.746 251.44 334.818 251.352 334.962 251.352C335.186 251.352 335.418 251.352 335.658 251.352C335.914 251.336 336.154 251.312 336.378 251.28C336.714 251.232 336.93 251.104 337.026 250.896C337.138 250.672 337.202 250.408 337.218 250.104C337.25 249.784 337.258 249.472 337.242 249.168C337.226 248.864 337.218 248.56 337.218 248.256C337.218 247.664 337.218 247.072 337.218 246.48C337.234 245.872 337.242 245.272 337.242 244.68V242.064C337.242 241.2 337.234 240.336 337.218 239.472C337.218 238.608 337.218 237.744 337.218 236.88C337.218 236.72 337.21 236.568 337.194 236.424C337.194 236.264 337.17 236.112 337.122 235.968C337.01 235.648 336.81 235.456 336.522 235.392C336.25 235.312 335.97 235.272 335.682 235.272C335.57 235.272 335.45 235.28 335.322 235.296C335.21 235.296 335.09 235.296 334.962 235.296C334.85 235.296 334.778 235.24 334.746 235.128C334.73 235.016 334.722 234.928 334.722 234.864C334.722 234.8 334.73 234.736 334.746 234.672C334.778 234.592 334.834 234.552 334.914 234.552C335.282 234.552 335.642 234.568 335.994 234.6C336.346 234.616 336.698 234.624 337.05 234.624C337.994 234.624 338.922 234.6 339.834 234.552C340.762 234.488 341.69 234.424 342.618 234.36C342.746 234.344 342.866 234.336 342.978 234.336C343.09 234.336 343.202 234.336 343.314 234.336C344.21 234.336 345.05 234.456 345.834 234.696C346.634 234.92 347.282 235.32 347.778 235.896C348.274 236.472 348.522 237.28 348.522 238.32C348.522 238.976 348.346 239.568 347.994 240.096C347.658 240.608 347.218 241.056 346.674 241.44C346.146 241.808 345.602 242.104 345.042 242.328V242.448C345.81 242.576 346.554 242.808 347.274 243.144C347.994 243.464 348.586 243.92 349.05 244.512C349.514 245.088 349.746 245.824 349.746 246.72ZM371.546 245.664C371.546 244.976 371.49 244.288 371.378 243.6C371.282 242.896 371.09 242.248 370.802 241.656C370.53 241.064 370.13 240.592 369.602 240.24C369.074 239.872 368.386 239.688 367.538 239.688C366.738 239.688 366.082 239.88 365.57 240.264C365.074 240.648 364.682 241.144 364.394 241.752C364.122 242.36 363.93 243.016 363.818 243.72C363.722 244.424 363.674 245.088 363.674 245.712C363.674 246.4 363.722 247.088 363.818 247.776C363.93 248.464 364.13 249.088 364.418 249.648C364.706 250.192 365.114 250.632 365.642 250.968C366.186 251.304 366.882 251.472 367.73 251.472C368.562 251.472 369.226 251.296 369.722 250.944C370.234 250.592 370.618 250.128 370.874 249.552C371.146 248.976 371.322 248.352 371.402 247.68C371.498 246.992 371.546 246.32 371.546 245.664ZM374.018 245.736C374.018 246.936 373.73 248.016 373.154 248.976C372.594 249.936 371.826 250.696 370.85 251.256C369.89 251.816 368.81 252.096 367.61 252.096C366.442 252.096 365.386 251.816 364.442 251.256C363.498 250.68 362.746 249.92 362.186 248.976C361.626 248.016 361.346 246.952 361.346 245.784C361.346 244.584 361.618 243.48 362.162 242.472C362.706 241.448 363.45 240.624 364.394 240C365.354 239.376 366.458 239.064 367.706 239.064C369.05 239.064 370.194 239.352 371.138 239.928C372.082 240.488 372.794 241.272 373.274 242.28C373.77 243.272 374.018 244.424 374.018 245.736ZM395.165 241.32C395.165 241.48 395.101 241.632 394.973 241.776C394.861 241.904 394.717 241.968 394.541 241.968C394.301 241.968 394.125 241.888 394.013 241.728C393.917 241.568 393.829 241.384 393.749 241.176C393.685 240.968 393.581 240.784 393.437 240.624C393.293 240.464 393.053 240.384 392.717 240.384C392.653 240.384 392.589 240.384 392.525 240.384C392.477 240.384 392.421 240.392 392.357 240.408C392.085 240.456 391.789 240.624 391.469 240.912C391.149 241.2 390.837 241.544 390.533 241.944C390.245 242.328 390.005 242.712 389.813 243.096C389.621 243.48 389.517 243.8 389.501 244.056C389.485 244.312 389.477 244.568 389.477 244.824C389.477 245.064 389.477 245.304 389.477 245.544C389.477 246.408 389.477 247.272 389.477 248.136C389.493 249 389.501 249.856 389.501 250.704C389.501 250.944 389.597 251.12 389.789 251.232C389.997 251.328 390.205 251.376 390.413 251.376C390.573 251.376 390.733 251.368 390.893 251.352C391.053 251.336 391.213 251.328 391.373 251.328C391.453 251.328 391.509 251.368 391.541 251.448C391.573 251.512 391.589 251.576 391.589 251.64C391.589 251.896 391.461 252.024 391.205 252.024C390.725 252.024 390.245 252.016 389.765 252C389.285 251.968 388.805 251.952 388.325 251.952C387.829 251.952 387.325 251.968 386.813 252C386.317 252.032 385.813 252.048 385.301 252.048C385.237 252.048 385.189 252 385.157 251.904C385.141 251.808 385.133 251.728 385.133 251.664C385.133 251.504 385.197 251.416 385.325 251.4C385.501 251.368 385.685 251.36 385.877 251.376C386.069 251.392 386.245 251.4 386.405 251.4C386.645 251.4 386.837 251.352 386.981 251.256C387.141 251.144 387.229 250.96 387.245 250.704C387.277 250.192 387.293 249.672 387.293 249.144C387.309 248.616 387.317 248.088 387.317 247.56V245.232C387.301 244.544 387.293 243.864 387.293 243.192C387.309 242.504 387.285 241.824 387.221 241.152C387.205 240.832 387.117 240.608 386.957 240.48C386.797 240.336 386.557 240.264 386.237 240.264C386.109 240.264 385.973 240.28 385.829 240.312C385.701 240.328 385.565 240.336 385.421 240.336C385.293 240.336 385.229 240.24 385.229 240.048C385.229 239.936 385.285 239.856 385.397 239.808C385.557 239.76 385.725 239.728 385.901 239.712C386.077 239.68 386.245 239.656 386.405 239.64C386.837 239.56 387.269 239.48 387.701 239.4C388.133 239.32 388.565 239.224 388.997 239.112C389.141 239.16 389.245 239.248 389.309 239.376C389.341 239.44 389.365 239.616 389.381 239.904C389.397 240.192 389.405 240.528 389.405 240.912C389.405 241.28 389.405 241.632 389.405 241.968C389.405 242.288 389.405 242.512 389.405 242.64C389.757 242.08 390.157 241.52 390.605 240.96C391.053 240.4 391.565 239.936 392.141 239.568C392.717 239.2 393.365 239.016 394.085 239.016C394.469 239.016 394.717 239.136 394.829 239.376C394.941 239.616 395.013 239.896 395.045 240.216C395.077 240.392 395.101 240.576 395.117 240.768C395.149 240.96 395.165 241.144 395.165 241.32ZM414.925 248.568C414.925 249.288 414.765 249.88 414.445 250.344C414.125 250.792 413.709 251.136 413.197 251.376C412.685 251.616 412.125 251.784 411.517 251.88C410.909 251.976 410.317 252.024 409.741 252.024C409.213 252.024 408.685 251.968 408.157 251.856C407.645 251.744 407.125 251.664 406.597 251.616C406.485 251.184 406.373 250.752 406.261 250.32C406.165 249.888 406.053 249.464 405.925 249.048C405.909 249 405.869 248.888 405.805 248.712C405.757 248.536 405.733 248.44 405.733 248.424C405.733 248.296 405.773 248.208 405.853 248.16C405.933 248.096 406.029 248.064 406.141 248.064C406.253 248.064 406.333 248.104 406.381 248.184C406.477 248.296 406.557 248.448 406.621 248.64C406.701 248.832 406.773 249 406.837 249.144C406.965 249.4 407.077 249.6 407.173 249.744C407.269 249.872 407.421 250.04 407.629 250.248C408.253 250.904 409.029 251.232 409.957 251.232C410.469 251.232 410.933 251.176 411.349 251.064C411.781 250.952 412.125 250.744 412.381 250.44C412.637 250.12 412.765 249.664 412.765 249.072C412.765 248.56 412.605 248.136 412.285 247.8C411.965 247.448 411.549 247.136 411.037 246.864C410.541 246.592 410.013 246.328 409.453 246.072C408.893 245.816 408.357 245.536 407.845 245.232C407.349 244.912 406.941 244.528 406.621 244.08C406.301 243.632 406.141 243.088 406.141 242.448C406.141 241.664 406.341 241.024 406.741 240.528C407.157 240.032 407.685 239.664 408.325 239.424C408.965 239.168 409.629 239.04 410.317 239.04C410.765 239.04 411.165 239.096 411.517 239.208C411.885 239.32 412.269 239.448 412.669 239.592C412.797 239.64 412.925 239.672 413.053 239.688C413.181 239.704 413.309 239.712 413.437 239.712C413.517 239.712 413.589 239.712 413.653 239.712C413.717 239.712 413.781 239.704 413.845 239.688C413.893 239.976 413.933 240.272 413.965 240.576C414.013 240.864 414.053 241.16 414.085 241.464C414.101 241.576 414.117 241.712 414.133 241.872C414.165 242.016 414.181 242.152 414.181 242.28C414.181 242.392 414.157 242.512 414.109 242.64C414.061 242.752 413.965 242.808 413.821 242.808C413.709 242.808 413.613 242.8 413.533 242.784C413.469 242.752 413.413 242.68 413.365 242.568C413.285 242.408 413.213 242.24 413.149 242.064C413.101 241.872 413.045 241.696 412.981 241.536C412.773 240.976 412.413 240.528 411.901 240.192C411.389 239.84 410.837 239.664 410.245 239.664C409.493 239.664 408.925 239.888 408.541 240.336C408.157 240.768 407.965 241.352 407.965 242.088C407.965 242.344 408.029 242.592 408.157 242.832C408.301 243.072 408.461 243.28 408.637 243.456C408.973 243.776 409.365 244.024 409.813 244.2C410.277 244.376 410.717 244.552 411.133 244.728C411.677 244.968 412.237 245.256 412.813 245.592C413.405 245.928 413.901 246.336 414.301 246.816C414.717 247.296 414.925 247.88 414.925 248.568ZM435.092 243.576C435.076 242.92 435.02 242.296 434.924 241.704C434.828 241.096 434.596 240.6 434.228 240.216C433.86 239.816 433.26 239.616 432.428 239.616C431.676 239.616 431.06 239.824 430.58 240.24C430.116 240.64 429.756 241.152 429.5 241.776C429.244 242.384 429.052 243.008 428.924 243.648C429.324 243.664 429.716 243.68 430.1 243.696C430.484 243.696 430.868 243.696 431.252 243.696C431.892 243.696 432.532 243.688 433.172 243.672C433.812 243.64 434.452 243.608 435.092 243.576ZM437.852 249.072C437.852 249.152 437.836 249.2 437.804 249.216C437.756 249.376 437.636 249.568 437.444 249.792C437.268 250.016 437.068 250.232 436.844 250.44C436.62 250.632 436.436 250.776 436.292 250.872C435.764 251.24 435.164 251.536 434.492 251.76C433.836 251.984 433.18 252.096 432.524 252.096C431.98 252.096 431.372 252.008 430.7 251.832C430.044 251.656 429.484 251.416 429.02 251.112C428.124 250.52 427.468 249.744 427.052 248.784C426.636 247.824 426.428 246.824 426.428 245.784C426.428 244.6 426.66 243.504 427.124 242.496C427.588 241.488 428.332 240.672 429.356 240.048C429.82 239.776 430.34 239.552 430.916 239.376C431.492 239.184 432.044 239.088 432.572 239.088C433.516 239.088 434.348 239.28 435.068 239.664C435.788 240.048 436.348 240.592 436.748 241.296C437.164 241.984 437.372 242.808 437.372 243.768C437.372 244.04 437.308 244.216 437.18 244.296C437.068 244.376 436.892 244.416 436.652 244.416C436.332 244.416 436.012 244.408 435.692 244.392C435.372 244.376 435.052 244.36 434.732 244.344C434.284 244.312 433.836 244.296 433.388 244.296C432.956 244.296 432.516 244.296 432.068 244.296C431.524 244.296 430.98 244.296 430.436 244.296C429.892 244.296 429.348 244.312 428.804 244.344C428.788 244.6 428.772 244.848 428.756 245.088C428.74 245.328 428.732 245.576 428.732 245.832C428.732 246.424 428.804 247.04 428.948 247.68C429.092 248.304 429.324 248.888 429.644 249.432C429.964 249.96 430.372 250.392 430.868 250.728C431.364 251.048 431.964 251.208 432.668 251.208C433.388 251.208 434.076 251.096 434.732 250.872C435.388 250.648 435.988 250.288 436.532 249.792C436.676 249.648 436.804 249.496 436.916 249.336C437.044 249.16 437.18 249.008 437.324 248.88C437.404 248.8 437.492 248.76 437.588 248.76C437.668 248.76 437.732 248.792 437.78 248.856C437.828 248.92 437.852 248.992 437.852 249.072Z" fill="black"/>
</g>
<defs>
<clipPath id="clip0_0_1">
<rect width="580" height="490" fill="white"/>
</clipPath>
</defs>
</svg>
